<svg fill="#000000" xmlns="http://www.w3.org/2000/svg"  viewBox="0 0 73 73" width="99px" height="99px"><path d="M 29.476562 5.7910156 C 29.068359 5.7539063 28.698242 6.0566407 28.660156 6.46875 L 28.322266 10.085938 C 28.28418 10.498047 28.586914 10.863281 29 10.902344 C 29.428124 10.938021 29.779158 10.625271 29.816406 10.224609 L 30.154297 6.6074219 C 30.192383 6.1953125 29.889648 5.8300781 29.476562 5.7910156 z M 24.294922 6.4570312 C 24.197556 6.461731 24.099609 6.4858398 24.005859 6.53125 C 23.631836 6.7099609 23.474609 7.1582031 23.654297 7.53125 C 24.275391 8.8261724 24.708008 10.201172 24.9375 11.619141 C 25.005043 12.03658 25.398899 12.306563 25.796875 12.240234 C 26.205078 12.173828 26.484375 11.788086 26.417969 11.378906 C 26.166016 9.8193359 25.69043 8.3066411 25.005859 6.8828125 C 24.871826 6.6030273 24.587021 6.4429321 24.294922 6.4570312 z M 20.007812 11.259766 C 19.715988 11.237839 19.427979 11.390625 19.285156 11.666016 C 19.095703 12.03418 19.241211 12.485352 19.609375 12.675781 C 22.759672 14.267676 22.707298 14.347656 23.03125 14.347656 C 23.817585 14.347656 24.070124 13.289234 23.375 12.929688 L 20.296875 11.341797 C 20.204102 11.294189 20.105087 11.267075 20.007812 11.259766 z M 55.613281 12.267578 C 50.041032 12.237036 44.455906 13.966876 37.193359 12.707031 C 33.498047 12.057617 29.363281 13.308594 26.416016 15.966797 C 25.086182 17.157287 24.083862 18.596619 23.386719 20.230469 C 22.312256 19.524048 21.175415 18.910645 19.990234 18.400391 C 19.550404 18.211596 19.049418 18.476803 18.958984 18.943359 L 18.898438 19.242188 C 15.927734 17.053711 12.210938 15.982423 8.5175781 16.292969 C 4.2436437 16.645458 3.0483031 19.540564 4.7148438 21.980469 C 5.3373297 23.47884 6.4013071 24.602205 7.5976562 25.851562 C 9.445374 27.78125 11.35144 29.752136 13.765625 30.896484 C 15.32196 31.634155 17.148865 31.951294 18.822266 31.65625 C 18.606873 31.859741 18.40741 32.079895 18.240234 32.326172 C 18.117065 32.507568 18.092529 32.720581 18.140625 32.919922 C 17.905945 34.52002 23.201233 37.082397 25.009766 37.810547 C 25.913504 40.304432 26.369705 41.505108 26.890625 43.076172 C 30.018305 52.503849 28.076992 56.329502 28.005859 57.058594 C 25.333252 57.172302 22.658752 57.318542 19.984375 57.513672 C 19.523157 57.548367 19.196278 57.988731 19.3125 58.445312 C 19.888306 60.715332 20.878113 62.465088 22.205078 63.646484 C 22.205078 63.646484 22.207031 63.648438 22.207031 63.648438 C 23.014141 64.366558 23.712488 64.722099 24.480469 64.996094 C 23.395952 64.689568 22.770029 64.248501 22.216797 63.658203 C 22.904602 64.430119 23.692017 65.099976 24.503906 65.603516 C 26.81366 67.036011 29.187988 67.028931 31.904297 67.123047 C 35.698059 67.254578 39.901733 67.221863 43.697266 67.158203 C 49.649319 67.058418 55.601101 67.918861 60.765625 64.75 C 61.079895 64.618713 61.385559 64.446106 61.683594 64.238281 C 63.236279 63.675522 64.335892 62.265213 65.085938 60.779297 C 69.339989 52.351887 64.213306 42.276947 61.955078 35.033203 C 60.70343 31.018494 59.890869 26.737122 60.623047 22.613281 C 63.248928 22.074928 64.72963 21.68191 67.279297 21.160156 C 67.158081 21.551514 67.371887 21.968018 67.761719 22.095703 C 67.839844 22.121094 67.916992 22.132813 67.994141 22.132812 C 68.30957 22.132812 68.603516 21.931641 68.707031 21.615234 C 69.268555 19.895508 69.030274 17.890625 68.085938 16.380859 C 66.584038 13.973953 63.303646 13.674076 61.242188 13.060547 C 59.325632 12.483582 57.470698 12.277759 55.613281 12.267578 z M 56.367188 13.75 C 58.922098 13.793722 60.019463 14.294981 62.982422 15.048828 C 60.252319 16.575988 58.504517 19.79248 58.007812 24.3125 C 57.008472 33.36282 62.548115 41.14513 64.080078 49.482422 C 64.94043 54.163086 64.306637 58.511719 62.341797 61.414062 C 61.630432 62.464844 60.863098 63.138672 60.060547 63.429688 C 59.524658 63.437744 58.991821 63.273621 58.609375 62.892578 C 57.934815 62.220581 57.720947 60.969727 58.244141 60.138672 C 58.533447 59.679138 58.7229 58.84729 58.625 58.251953 C 58.7122 57.670376 58.132198 57.213386 57.572266 57.476562 C 48.375061 56.805786 38.99176 56.643188 29.568359 56.988281 C 31.278307 50.696712 28.946991 44.196251 26.804688 38.357422 C 29.254772 38.95639 31.025129 38.855141 32.816406 38.935547 C 31.967773 39.308594 30.94043 39.62207 30.597656 39.519531 C 30.224609 39.347656 29.775391 39.507813 29.601562 39.884766 C 29.427734 40.260742 29.592774 40.708008 29.96875 40.880859 C 35.477005 43.420979 41.63369 42.9688 42.953125 42.072266 C 45.498165 44.427975 45.474747 44.724609 46.007812 44.724609 C 46.680366 44.724609 47.01017 43.902546 46.527344 43.435547 C 43.522598 40.565895 44.004387 40.96278 43.753906 40.796875 C 43.835754 40.226379 43.680115 39.678772 43.589844 39.369141 C 42.65332 36.185547 41.033203 33.15918 38.904297 30.615234 C 38.514297 30.149641 37.774391 30.318956 37.609375 30.886719 C 35.666016 27.701172 32.854492 25.088867 29.505859 23.396484 C 29.310547 23.296875 29.078125 23.288086 28.876953 23.373047 C 28.410412 23.570431 28.528452 23.904266 28.152344 24.457031 C 27.107239 23.218689 25.924561 22.104248 24.638672 21.125 C 25.249817 19.565125 26.170715 18.199646 27.417969 17.082031 C 30.03418 14.72461 33.681641 13.611328 36.935547 14.183594 C 41.760742 15.022461 45.682617 14.609375 49.476562 14.208984 C 52.777476 13.862606 54.834241 13.723767 56.367188 13.75 z M 65.896484 16.505859 C 66.012421 16.507645 66.128632 16.516327 66.232422 16.507812 C 67.08699 17.280123 67.484802 18.449148 67.507812 19.582031 C 65.252029 20.026339 63.772457 20.408941 60.986328 21.003906 C 61.339966 19.822998 61.876038 18.694641 62.748047 17.835938 C 63.619446 16.977905 64.486694 16.909729 65.558594 16.544922 C 65.664337 16.508942 65.780548 16.504074 65.896484 16.505859 z M 10.300781 17.742188 C 12.947797 17.88777 16.28566 18.877539 18.900391 21.167969 C 19.334837 21.547848 20.019278 21.314373 20.130859 20.748047 L 20.246094 20.166016 C 21.28833 20.672791 22.283997 21.267334 23.224609 21.939453 C 23.232056 21.946167 23.24231 21.948669 23.25 21.955078 C 24.855347 23.105713 26.296021 24.484863 27.513672 26.048828 C 27.765625 26.37207 28.232422 26.43457 28.5625 26.181641 C 28.944336 25.887695 29.271484 25.517578 29.519531 25.101562 C 32.981445 27.040039 35.762695 30.064453 37.398438 33.691406 C 37.519531 33.959961 37.787109 34.132813 38.082031 34.132812 C 38.626888 34.132812 38.805084 33.681484 38.962891 33.160156 C 40.369141 35.180664 41.458984 37.441406 42.150391 39.792969 C 42.428299 40.739594 42.330837 40.926971 41.298828 41.078125 C 38.567383 41.47168 35.720703 41.24707 33.064453 40.451172 C 34.063477 40.041992 34.954102 39.491211 35.238281 39.09375 C 35.428711 38.828125 35.425781 38.470703 35.230469 38.208984 C 34.43644 37.146862 31.653204 37.510861 30.71875 37.369141 C 26.8734 36.780483 23.086174 35.187363 19.933594 32.664062 C 20.416016 32.246094 21.049805 31.988281 21.679688 31.976562 C 22.388264 31.963482 22.681028 31.061689 22.125 30.632812 C 20.886719 29.672852 19.389648 29.685547 17.949219 29.701172 C 13.911255 29.725183 15.015281 29.369124 7.2363281 22.548828 C 6.2773438 21.670898 5.3232422 20.635742 5.5078125 19.615234 C 5.6005859 19.100586 6.0048828 18.606445 6.5878906 18.292969 C 7.3728114 17.871763 8.7125716 17.654838 10.300781 17.742188 z M 5.6992188 23.152344 C 6.154046 23.608143 6.1166416 23.54797 9.7226562 26.857422 C 8.7670899 26.079041 6.5272652 24.079576 5.6992188 23.152344 z M 45.035156 25.402344 C 44.692627 25.396973 44.370117 25.494141 44.103516 25.693359 C 43.796585 25.923557 43.636951 26.237505 43.486328 26.501953 C 43.041992 27.194336 41.870117 27.192383 40.96875 26.894531 C 39.802582 26.506851 38.642212 25.773745 37.236328 25.71875 C 36.859375 25.680664 36.474609 26.024414 36.458984 26.439453 C 36.442383 26.853516 36.763672 27.201172 37.177734 27.216797 C 38.235249 27.25963 39.32803 27.932432 40.5 28.318359 C 42.014839 28.818403 43.881588 28.665621 44.75 27.310547 C 44.83255 27.1803 44.974918 26.918724 44.980469 26.904297 C 45.209057 26.810518 45.803494 27.463081 46.367188 27.732422 C 48.503513 28.749819 50.254337 26.219475 54.041016 27.595703 C 54.428711 27.735352 54.861328 27.536133 55.001953 27.146484 C 55.143555 26.756836 54.942383 26.327148 54.552734 26.185547 C 52.649368 25.495464 50.80537 25.558577 48.908203 26.167969 C 46.889839 26.808937 47.114838 26.360794 46.083984 25.724609 C 45.740234 25.514648 45.377686 25.407715 45.035156 25.402344 z M 55.619141 43.320312 C 55.522461 43.307892 55.42041 43.315674 55.320312 43.34375 C 53.318695 43.902287 53.08894 43.513504 52.935547 43.505859 C 52.078316 43.195679 51.579208 43.281422 50.943359 43.955078 C 50.832493 44.072338 50.72126 44.251701 50.310547 44.169922 C 50.144531 44.136719 50.060547 44.068359 50.048828 44.046875 C 49.854492 43.689453 49.402344 43.536133 49.039062 43.726562 C 48.205631 44.156723 48.716991 45.355892 49.972656 45.632812 C 50.584988 45.768887 51.269436 45.651028 51.732422 45.277344 C 51.771858 45.245369 52.19883 44.844517 52.150391 44.833984 C 52.500618 44.848278 53.054184 45.530819 55.722656 44.789062 C 56.12207 44.677734 56.355469 44.264648 56.244141 43.865234 C 56.160645 43.565674 55.90918 43.357574 55.619141 43.320312 z M 35.363281 49.458984 C 35.171387 49.46814 34.98291 49.550781 34.84375 49.703125 C 34.564453 50.009766 34.586914 50.483398 34.892578 50.761719 C 36.25293 51.999023 38.126953 52.621094 40.482422 52.621094 C 44.068226 52.621094 47.398998 51.09507 50.697266 51.523438 C 52.200043 51.7188 53.833839 52.325878 55.503906 51.826172 C 55.900391 51.706055 56.126953 51.289063 56.007812 50.892578 C 55.888672 50.496094 55.472656 50.270508 55.072266 50.388672 C 54.188477 50.655273 53.207031 50.461914 52.164062 50.255859 C 48.311424 49.503044 46.609963 50.326023 42.816406 50.923828 C 39.702148 51.419922 37.37207 50.989258 35.902344 49.652344 C 35.749512 49.513184 35.555176 49.449829 35.363281 49.458984 z M 38.742188 58.316406 C 44.6278 58.309051 50.477753 58.504028 56.257812 58.896484 C 55.314732 60.586082 55.608932 62.768993 56.662109 63.9375 C 47.084377 65.035763 40.661858 64.75473 31.945312 64.503906 C 29.50293 64.422852 26.978516 64.338871 24.826172 63.533203 C 23.068359 62.875 21.789063 61.332031 21.015625 58.943359 C 26.935303 58.532471 32.856575 58.323761 38.742188 58.316406 z"/></svg>